<?xml version="1.0" encoding="UTF-8" standalone="no"?>
<!-- Created with Inkscape (http://www.inkscape.org/) -->

<svg
   width="297mm"
   height="40mm"
   viewBox="0 0 297 40"
   version="1.1"
   id="svg5"
   inkscape:version="1.1.2 (0a00cf5339, 2022-02-04, custom)"
   sodipodi:docname="div.svg"
   xmlns:inkscape="http://www.inkscape.org/namespaces/inkscape"
   xmlns:sodipodi="http://sodipodi.sourceforge.net/DTD/sodipodi-0.dtd"
   xmlns="http://www.w3.org/2000/svg"
   xmlns:svg="http://www.w3.org/2000/svg">
  <sodipodi:namedview
     id="namedview7"
     pagecolor="#ffffff"
     bordercolor="#666666"
     borderopacity="1.0"
     inkscape:pageshadow="2"
     inkscape:pageopacity="0.0"
     inkscape:pagecheckerboard="0"
     inkscape:document-units="mm"
     showgrid="false"
     inkscape:zoom="0.77771465"
     inkscape:cx="872.42796"
     inkscape:cy="138.22551"
     inkscape:window-width="2560"
     inkscape:window-height="1416"
     inkscape:window-x="1920"
     inkscape:window-y="0"
     inkscape:window-maximized="1"
     inkscape:current-layer="layer1" />
  <defs
     id="defs2" />
  <g
     inkscape:label="Layer 1"
     inkscape:groupmode="layer"
     id="layer1">
    <path
       style="fill:none;stroke:#2e3d56;stroke-width:0.628163px;stroke-linecap:butt;stroke-linejoin:miter;stroke-opacity:1"
       d="M 38.101504,18.236943 C 36.886455,17.050408 35.364285,16.1657 33.861084,15.3898 c -2.289144,-1.181455 -4.89182,-2.251846 -7.451096,-2.604884 -3.064617,-0.422648 -6.612352,-0.08381 -9.631883,0.545274 -3.140946,0.654367 -6.059694,2.055954 -9.147245,2.907708 -1.5607983,0.430602 -3.1731159,0.545251 -4.7856709,0.545251 -0.4570026,0 -0.83288,-0.09378 -1.2721001,-0.181861 -0.2424733,-0.04843 -0.4240731,-0.123457 -0.4240731,-0.121083 0,0.122032 1.6844211,0.97666 1.8173504,1.029817 2.5706247,1.028226 5.1804705,2.018086 7.9357097,2.362506 3.517536,0.439718 7.002023,0.690857 10.540523,0.848098 4.315871,0.191832 -1.454697,-0.04202 2.544318,0.0603 1.170154,0.03015 2.341115,0.186372 3.513452,0.121082 2.017778,-0.11206 3.923827,-0.838293 5.876101,-1.2721 1.612792,-0.358427 3.276249,-0.668873 4.725034,-1.393325 z"
       id="path159" />
    <path
       style="fill:none;stroke:#2e3d56;stroke-width:0.628163px;stroke-linecap:butt;stroke-linejoin:miter;stroke-opacity:1"
       d="m 38.101504,18.236943 c 3.625086,0.923977 7.420375,0.910777 11.085773,1.696173 1.219702,0.261372 2.465995,0.388888 3.695242,0.605792 6.976572,1.231145 14.036145,1.757688 21.141681,1.393348 1.060325,-0.0546 0.41149,-0.0546 1.514431,-0.181861 1.129128,-0.130341 0.432169,-0.01425 1.514431,-0.0603 1.086607,-0.04725 2.195815,-0.270441 3.27124,-0.424097 0.86315,-0.123219 1.742208,-0.11301 2.604812,-0.242283 0.68884,-0.103276 1.367756,-0.279107 2.059682,-0.363461 2.594176,-0.316405 5.212118,-0.550972 7.814532,-0.787533 3.37162,-0.306481 6.739655,-0.318542 10.116522,-0.424002 1.31324,-0.04084 2.62385,-0.144112 3.93752,-0.181861 2.88634,-0.08238 5.77622,-0.04345 8.66264,-0.121082 4.16359,-0.112536 8.30828,-0.397672 12.47905,-0.302896 0.77972,0.01662 1.53366,0.141975 2.30196,0.242283 1.29119,0.168329 2.59871,0.278917 3.87703,0.545274 1.08219,0.225546 2.13632,0.590217 3.21061,0.848075 1.5003,0.360065 2.99714,0.738293 4.48275,1.150994 0.8452,0.234805 1.723,0.407121 2.4837,0.787463"
       id="path161" />
    <path
       style="fill:none;stroke:#2e3d56;stroke-width:0.628163px;stroke-linecap:butt;stroke-linejoin:miter;stroke-opacity:1"
       d="m 56.698938,21.750467 c -1.693609,-0.08998 -3.124422,0.786774 -4.54334,1.575044 -0.767805,0.426589 -1.545651,0.852182 -2.2414,1.393301 -1.128867,0.877965 0.04084,0.0774 -1.090381,1.029817 -0.65686,0.553132 -2.433493,1.752132 -3.210652,2.120198 -0.98523,0.466761 -0.219373,0.03822 -1.211559,0.424097 -0.592472,0.230531 -1.14494,0.5311 -1.756785,0.726897 -1.728201,0.553038 -3.496216,1.023739 -5.270214,1.393301 -1.610252,0.335493 -3.209488,0.509496 -4.846236,0.605792 -0.551827,0.03276 -1.046198,-0.01424 -1.575043,-0.121083 -0.189933,-0.03775 -0.484638,-0.183047 -0.484638,-0.181623 0,0.03704 1.2023,0.653797 1.635608,0.908687 2.77485,1.632237 6.051242,2.030479 9.20781,2.180811 2.559704,0.121794 5.196924,0.182573 7.753992,0 1.083971,-0.0774 1.955669,-0.267544 3.028885,-0.424073 1.308354,-0.190883 2.657899,-0.250332 3.937597,-0.605744 2.410701,-0.66968 4.478857,-2.14743 6.057747,-4.05875 0.532121,-0.644063 0.780173,-1.36671 1.090429,-2.120246 0.373123,-0.906241 0.779295,-1.792706 1.090429,-2.72599 0.08025,-0.240835 0.269563,-1.359967 0.363461,-1.453866"
       id="path163" />
    <path
       style="fill:none;stroke:#2e3d56;stroke-width:0.628163px;stroke-linecap:butt;stroke-linejoin:miter;stroke-opacity:1"
       d="m 113.82383,20.114906 c -0.95982,1.326801 -1.91388,2.802486 -3.33178,3.695243 -1.32283,0.832903 -4.20699,0.919347 -5.75492,0.969275 -1.76011,0.05651 -3.50659,0.121083 -5.270239,0.121083 -1.887626,0 -3.816847,-0.08286 -5.694287,0.121082 -1.929411,0.209638 -4.333203,0.656883 -6.178948,1.272148 -3.615826,1.205267 -6.617646,3.663024 -10.358852,4.54334 -1.59285,0.374761 -3.15106,0.545179 -4.7856,0.545179 -0.383688,0 -0.767377,0 -1.150994,0 -0.08072,0 -0.242354,-0.08072 -0.242354,0 0,0.0603 0.121082,0 0.181623,0 0.265337,0 -0.01187,-0.01425 0.424073,0.121082 0.739291,0.231006 1.496102,0.456741 2.241352,0.666356 2.449447,0.688911 4.897162,1.479626 7.390531,1.999069 0.837415,0.174501 1.697289,0.212013 2.544248,0.302896 0.567876,0.06102 1.126872,0.196818 1.696173,0.242283 6.943785,0.555554 13.075416,-0.273622 19.263764,-3.574065 1.39938,-0.746318 2.84119,-1.583661 4.0587,-2.604883 0.59193,-0.496414 0.80067,-0.86118 1.33272,-1.393254 0.69078,-0.690786 0.6254,-0.471129 1.2116,-1.211607 1.29829,-1.64 2.12312,-3.640089 3.02889,-5.451956"
       id="path169" />
    <path
       style="fill:none;stroke:#2e3d56;stroke-width:0.628163px;stroke-linecap:butt;stroke-linejoin:miter;stroke-opacity:1"
       d="m 132.54242,18.176402 c 0.16453,-0.918706 -0.48644,-1.888528 -0.90869,-2.665425 -1.6253,-2.990638 -3.45628,-4.725557 -6.05777,-6.8453043 C 121.61256,5.4362179 118.45428,5.1452168 113.58155,4.7886413 109.6826,4.5034094 105.75657,4.1570903 101.88998,3.5771298 100.4993,3.3684409 99.095904,3.2729283 97.710105,3.0319508 96.519059,2.8246864 95.332381,2.5450575 94.136041,2.3655946 93.132126,2.2150727 92.061782,1.9966022 91.107179,1.6386972 c -0.0071,0 -0.563982,-0.2611342 -0.484638,-0.1818609 2.118869,2.1189402 5.33009,3.0910886 7.814557,4.6644937 0.988648,0.6262329 1.940642,1.3374371 2.907712,1.9990687 1.1673,0.7987158 2.38845,1.5267528 3.57411,2.3019883 1.85033,1.209826 3.8445,2.603293 6.05777,3.028933 2.3828,0.458189 4.85331,0.560255 7.26935,0.726921 0.85928,0.05912 1.70259,0.06814 2.54425,0.242283 1.18706,0.245607 2.49394,0.564457 3.6347,0.969252 1.70973,0.60667 3.26236,1.619773 4.84621,2.483683 0.81643,0.445322 2.51825,1.064551 3.15007,1.696173"
       id="path171" />
    <path
       style="fill:none;stroke:#2e3d56;stroke-width:0.628163px;stroke-linecap:butt;stroke-linejoin:miter;stroke-opacity:1"
       d="m 259.33187,18.236943 c 1.21504,-1.186535 2.73722,-2.071243 4.24042,-2.847143 2.28912,-1.181455 4.89182,-2.251846 7.45109,-2.604884 3.06462,-0.422672 6.61235,-0.08381 9.63189,0.54525 3.14094,0.654367 6.05969,2.055978 9.14724,2.907709 1.5608,0.430601 3.17312,0.54525 4.78567,0.54525 0.457,0 0.83288,-0.09378 1.2721,-0.181861 0.24247,-0.04843 0.42407,-0.123457 0.42407,-0.121082 0,0.122032 -1.68442,0.976659 -1.81735,1.029816 -2.57062,1.028227 -5.18047,2.018086 -7.93571,2.362506 -3.51753,0.439719 -7.00202,0.690858 -10.54052,0.848098 -4.31587,0.191833 1.4547,-0.04202 -2.54432,0.0603 -1.17015,0.03015 -2.34111,0.186372 -3.51345,0.121082 -2.01778,-0.11206 -3.92383,-0.838293 -5.8761,-1.2721 -1.61279,-0.358427 -3.27625,-0.668873 -4.72503,-1.393325 z"
       id="path159-3" />
    <path
       style="fill:none;stroke:#2e3d56;stroke-width:0.628163px;stroke-linecap:butt;stroke-linejoin:miter;stroke-opacity:1"
       d="m 259.33187,18.236943 c -3.62509,0.923977 -7.42038,0.910777 -11.08578,1.696173 -1.2197,0.261372 -2.46599,0.388888 -3.69524,0.605792 -6.97657,1.231145 -14.03614,1.757688 -21.14168,1.393348 -1.06032,-0.0546 -0.41149,-0.0546 -1.51443,-0.181861 -1.12912,-0.130341 -0.43217,-0.01425 -1.51443,-0.0603 -1.0866,-0.04725 -2.19581,-0.270441 -3.27124,-0.424073 -0.86315,-0.123219 -1.74221,-0.11301 -2.60481,-0.242284 -0.68884,-0.103276 -1.36775,-0.279106 -2.05968,-0.36346 -2.59418,-0.316405 -5.21214,-0.550972 -7.81456,-0.787534 -3.37159,-0.30648 -6.73965,-0.318541 -10.11652,-0.424001 -1.31324,-0.04084 -2.62385,-0.144112 -3.9375,-0.181861 -2.88636,-0.08238 -5.77624,-0.04345 -8.66263,-0.121082 -4.16362,-0.112536 -8.30829,-0.397673 -12.47905,-0.302896 -0.77972,0.01662 -1.53369,0.141975 -2.30197,0.242283 -1.29118,0.168328 -2.59871,0.278917 -3.87703,0.54525 -1.08221,0.225546 -2.13632,0.590217 -3.2106,0.848075 -1.5003,0.360065 -2.99714,0.738293 -4.48278,1.150994 -0.84517,0.234805 -1.72297,0.407121 -2.48368,0.787463"
       id="path161-6" />
    <path
       style="fill:none;stroke:#2e3d56;stroke-width:0.628163px;stroke-linecap:butt;stroke-linejoin:miter;stroke-opacity:1"
       d="m 240.73443,21.750467 c 1.69361,-0.08998 3.12442,0.786774 4.54334,1.575044 0.76781,0.426589 1.54565,0.852182 2.2414,1.393277 1.12887,0.877989 -0.0408,0.0774 1.09038,1.029817 0.65686,0.553156 2.4335,1.752132 3.21065,2.120222 0.98523,0.466737 0.21938,0.03822 1.21156,0.424073 0.59248,0.230531 1.14494,0.531124 1.75679,0.726921 1.72818,0.553038 3.49619,1.023716 5.27021,1.393278 1.61026,0.335493 3.20949,0.509495 4.84624,0.605791 0.55183,0.03276 1.0462,-0.01424 1.57504,-0.121082 0.18994,-0.03775 0.48464,-0.183048 0.48464,-0.181624 0,0.03704 -1.2023,0.653797 -1.63561,0.908687 -2.77485,1.632237 -6.05124,2.030479 -9.20781,2.180811 -2.5597,0.121795 -5.19692,0.182573 -7.75399,0 -1.08397,-0.0774 -1.95567,-0.267544 -3.02889,-0.424073 -1.30835,-0.190882 -2.65789,-0.250331 -3.93759,-0.605744 -2.4107,-0.66968 -4.47886,-2.14743 -6.05774,-4.058749 -0.53213,-0.644063 -0.78018,-1.366711 -1.09043,-2.120246 -0.37313,-0.906242 -0.7793,-1.792707 -1.09043,-2.72599 -0.0803,-0.240835 -0.26957,-1.359968 -0.36346,-1.453866"
       id="path163-7" />
    <path
       style="fill:none;stroke:#2e3d56;stroke-width:0.628163px;stroke-linecap:butt;stroke-linejoin:miter;stroke-opacity:1"
       d="m 183.60954,20.114906 c 0.95983,1.326801 1.91389,2.802486 3.33178,3.695243 1.32284,0.83288 4.207,0.919323 5.75493,0.969252 1.76011,0.05651 3.50659,0.121082 5.27023,0.121082 1.88763,0 3.81685,-0.08286 5.69429,0.121082 1.92941,0.209639 4.3332,0.656884 6.17895,1.272148 3.6158,1.205267 6.61762,3.663024 10.35883,4.54334 1.59285,0.374761 3.15106,0.545179 4.7856,0.545179 0.38369,0 0.76737,0 1.15099,0 0.0807,0 0.24236,-0.08072 0.24236,0 0,0.0603 -0.12109,0 -0.18163,0 -0.26533,0 0.0119,-0.01424 -0.42407,0.121082 -0.73929,0.231006 -1.4961,0.456742 -2.24135,0.666356 -2.44945,0.688911 -4.89716,1.479626 -7.39053,1.999069 -0.83742,0.174501 -1.69729,0.212013 -2.54425,0.302896 -0.56788,0.06102 -1.12687,0.196818 -1.69617,0.242283 -6.94379,0.555554 -13.07542,-0.273622 -19.26377,-3.574064 -1.39938,-0.746318 -2.84119,-1.583662 -4.0587,-2.604884 -0.59193,-0.496438 -0.80067,-0.861204 -1.33269,-1.393254 -0.69079,-0.690786 -0.6254,-0.471129 -1.21163,-1.211606 -1.29827,-1.640001 -2.1231,-3.64009 -3.02889,-5.451957"
       id="path169-3" />
    <path
       style="fill:none;stroke:#2e3d56;stroke-width:0.628163px;stroke-linecap:butt;stroke-linejoin:miter;stroke-opacity:1"
       d="m 164.89096,18.176402 c -0.16453,-0.918706 0.48644,-1.888528 0.90868,-2.665425 1.62531,-2.990638 3.45628,-4.725557 6.05777,-6.8453043 3.96341,-3.2294548 7.12168,-3.5204797 11.99442,-3.8770314 3.89894,-0.2852319 7.82497,-0.631551 11.69156,-1.2115352 1.39069,-0.2086889 2.79408,-0.3042015 4.17988,-0.545179 1.19105,-0.2072644 2.37772,-0.4868933 3.57406,-0.6663563 1.00392,-0.1505219 2.07426,-0.3689923 3.02887,-0.7268973 0.007,0 0.56398,-0.2611342 0.48463,-0.1818609 -2.11887,2.1189402 -5.33009,3.0910886 -7.81455,4.6644937 -0.98865,0.6262328 -1.94064,1.337437 -2.90771,1.9990687 -1.16731,0.7987158 -2.38846,1.5267528 -3.57411,2.301988 -1.85033,1.209826 -3.84451,2.603293 -6.05777,3.028933 -2.38281,0.45819 -4.85331,0.560255 -7.26936,0.726921 -0.85928,0.05912 -1.70258,0.06814 -2.54425,0.242284 -1.18708,0.245607 -2.49396,0.564457 -3.6347,0.969251 -1.70975,0.60667 -3.26236,1.619773 -4.84621,2.483683 -0.81643,0.445322 -2.51825,1.064551 -3.15006,1.696173"
       id="path171-5" />
    <path
       style="fill:none;stroke:#2e3d56;stroke-width:0.628163px;stroke-linecap:butt;stroke-linejoin:miter;stroke-opacity:1"
       d="M 90.013782,19.974854 C 87.221838,18.885802 84.950524,16.928518 83.107936,14.583463 82.495901,13.804524 81.940228,12.970528 81.290586,12.220934 80.611219,11.437033 79.769935,10.714836 78.988622,10.040075 77.277373,8.5621829 74.883433,7.4421004 72.870238,6.4660109 69.587887,4.8745622 66.166861,3.4897131 62.571999,2.7707692 61.744318,2.60529 60.863575,2.6411399 60.027751,2.5891457 c -0.70166,-0.043922 -1.418467,0.021368 -2.120246,0 -2.034752,-0.061491 -4.086076,-0.1270177 -6.118383,0 -0.188034,0.011871 -1.999069,0.093067 -1.999069,0.1816235 0,0.046534 0.83967,0.3451083 1.211607,0.4846378 1.948119,0.7304824 3.961694,1.1711982 5.876029,1.9990687 0.40648,0.1756881 0.810278,0.3579288 1.211606,0.545179 2.485511,1.1598972 4.749916,2.7453868 6.905846,4.4221393 1.571862,1.222599 3.356021,2.172382 4.846212,3.513571 1.114812,1.003297 2.218489,2.043608 3.452958,2.907708 2.823093,1.976205 7.081107,4.482775 10.6617,4.482775"
       id="path567" />
    <path
       style="fill:none;stroke:#2e3d56;stroke-width:0.628163px;stroke-linecap:butt;stroke-linejoin:miter;stroke-opacity:1"
       d="m 210.32431,20.236036 c 2.79194,-1.089052 5.06326,-3.046336 6.90585,-5.391391 0.61203,-0.778939 1.1677,-1.612935 1.81735,-2.36253 0.67936,-0.783901 1.52065,-1.506097 2.30196,-2.180858 1.71125,-1.4778925 4.10519,-2.5979749 6.11838,-3.5740644 3.28235,-1.5914488 6.70338,-2.9762978 10.29824,-3.6952418 0.82768,-0.1654791 1.70842,-0.1296293 2.54425,-0.1816234 0.70166,-0.043922 1.41846,0.021367 2.12024,0 2.03475,-0.061491 4.08608,-0.1270177 6.11838,0 0.18804,0.011871 1.99907,0.093067 1.99907,0.1816234 0,0.046534 -0.83967,0.3451083 -1.2116,0.4846378 -1.94812,0.7304824 -3.9617,1.1711982 -5.87603,1.9990688 -0.40648,0.175688 -0.81028,0.3579287 -1.21161,0.5451789 -2.48551,1.1598972 -4.74991,2.7453868 -6.90584,4.4221387 -1.57186,1.222599 -3.35602,2.172383 -4.84621,3.513571 -1.11481,1.003298 -2.21849,2.043608 -3.45296,2.907709 -2.82309,1.976205 -7.08111,4.482775 -10.6617,4.482775"
       id="path567-2" />
    <path
       id="path972"
       style="fill:#000000;stroke-width:0.628163;stroke:#2e3d56;stroke-opacity:1"
       d="m 148.73366,19.066055 a 3.6952471,3.6952471 0 0 0 -3.69537,3.695371 3.6952471,3.6952471 0 0 0 3.69537,3.69537 3.6952471,3.6952471 0 0 0 3.69538,-3.69537 3.6952471,3.6952471 0 0 0 -3.69538,-3.695371 z m 0.0307,0.545963 a 3.1197621,3.1197621 0 0 1 3.11996,3.118736 3.1197621,3.1197621 0 0 1 -3.11996,3.119962 3.1197621,3.1197621 0 0 1 -3.11996,-3.119962 3.1197621,3.1197621 0 0 1 3.11996,-3.118736 z" />
  </g>
</svg>
